<?xml version="1.0" encoding="utf-8"?>
<!-- Generator: Adobe Illustrator 13.0.0, SVG Export Plug-In . SVG Version: 6.00 Build 14948)  -->
<!DOCTYPE svg PUBLIC "-//W3C//DTD SVG 1.1//EN" "http://www.w3.org/Graphics/SVG/1.1/DTD/svg11.dtd">
<svg version="1.1" id="Layer_1" xmlns="http://www.w3.org/2000/svg" xmlns:xlink="http://www.w3.org/1999/xlink" x="0px" y="0px"
	 width="595.275px" height="80.89px" viewBox="0 380.5 595.275 80.89" enable-background="new 0 380.5 595.275 80.89"
	 xml:space="preserve">
<g>
	<path d="M11.475,421.067h0.144c0.792-1.44,1.656-2.88,2.52-4.248l7.129-10.585h13.177l-12.601,14.257l14.401,20.954H22.78
		l-8.497-14.473l-2.808,3.455v11.018H0.531V390.32h10.945V421.067z"/>
	<path d="M40.274,417.827c0-5.185-0.144-8.569-0.288-11.593h9.433l0.36,6.48h0.288c1.8-5.112,6.121-7.272,9.505-7.272
		c1.008,0,1.512,0,2.304,0.144v10.297c-0.792-0.144-1.728-0.288-2.952-0.288c-4.032,0-6.769,2.16-7.489,5.544
		c-0.144,0.72-0.216,1.584-0.216,2.448v17.857H40.274V417.827z"/>
	<path d="M65.327,435.18l11.089-13.897c2.017-2.376,3.601-4.104,5.617-6.265v-0.144H66.552v-8.641h28.803v6.552l-10.585,13.321
		c-1.944,2.305-3.745,4.537-5.761,6.48v0.145H95.93v8.713H65.327V435.18z"/>
	<path d="M110.759,406.234l5.256,17.281c0.576,2.088,1.296,4.681,1.728,6.553h0.216c0.504-1.872,1.08-4.537,1.584-6.553l4.32-17.281
		h11.737l-8.209,23.186c-5.041,13.97-8.425,19.586-12.385,23.114c-3.816,3.313-7.849,4.464-10.585,4.825l-2.304-9.289
		c1.368-0.217,3.096-0.864,4.752-1.873c1.656-0.863,3.456-2.592,4.536-4.393c0.36-0.504,0.576-1.08,0.576-1.584
		c0-0.359-0.072-0.936-0.504-1.8L98.59,406.234H110.759z"/>
	<path d="M138.983,431.869c2.016,1.224,6.192,2.664,9.433,2.664c3.312,0,4.68-1.152,4.68-2.953c0-1.8-1.08-2.664-5.185-4.031
		c-7.272-2.449-10.081-6.409-10.009-10.585c0-6.553,5.617-11.521,14.329-11.521c4.104,0,7.777,0.936,9.937,2.016l-1.944,7.561
		c-1.584-0.864-4.608-2.016-7.632-2.016c-2.665,0-4.176,1.08-4.176,2.88c0,1.656,1.368,2.52,5.688,4.032
		c6.696,2.304,9.504,5.688,9.577,10.874c0,6.552-5.185,11.377-15.265,11.377c-4.608,0-8.713-1.009-11.377-2.449L138.983,431.869z"/>
	<path d="M167.493,435.18l11.089-13.897c2.017-2.376,3.601-4.104,5.617-6.265v-0.144h-15.481v-8.641h28.803v6.552l-10.585,13.321
		c-1.944,2.305-3.745,4.537-5.761,6.48v0.145h16.922v8.713h-30.603V435.18z"/>
	<path d="M216.31,396.153v10.081h7.849v8.064h-7.849v12.745c0,4.249,1.008,6.192,4.32,6.192c1.368,0,2.448-0.144,3.241-0.287
		l0.072,8.28c-1.44,0.575-4.032,0.937-7.128,0.937c-3.528,0-6.481-1.225-8.209-3.025c-2.016-2.088-3.024-5.473-3.024-10.44v-14.401
		h-4.68v-8.064h4.68v-7.633L216.31,396.153z"/>
	<path d="M264.913,423.443c0,12.89-9.146,18.794-18.578,18.794c-10.297,0-18.218-6.769-18.218-18.146s7.489-18.649,18.794-18.649
		C257.712,405.442,264.913,412.858,264.913,423.443z M239.423,423.803c0,6.049,2.52,10.585,7.201,10.585
		c4.248,0,6.984-4.248,6.984-10.585c0-5.256-2.016-10.585-6.984-10.585C241.367,413.218,239.423,418.619,239.423,423.803z"/>
	<path d="M272.901,441.445v-27.146h-4.608v-8.064h4.608v-1.368c0-4.249,1.296-8.929,4.465-11.809
		c2.736-2.592,6.553-3.528,9.721-3.528c2.448,0,4.32,0.288,5.832,0.72l-0.432,8.425c-0.937-0.288-2.088-0.504-3.528-0.504
		c-3.601,0-5.112,2.809-5.112,6.265v1.8h7.057v8.064h-6.984v27.146H272.901z"/>
	<path d="M296.229,418.043c0-4.608-0.145-8.569-0.288-11.809h9.505l0.504,4.896h0.144c2.593-3.745,6.625-5.688,11.737-5.688
		c7.705,0,14.617,6.696,14.617,17.929c0,12.818-8.137,18.866-15.985,18.866c-4.248,0-7.561-1.728-9.145-4.032h-0.145v17.498h-10.944
		V418.043z M307.173,426.324c0,0.863,0.072,1.656,0.217,2.305c0.72,2.951,3.24,5.184,6.408,5.184c4.752,0,7.561-3.96,7.561-9.937
		c0-5.617-2.521-9.865-7.417-9.865c-3.096,0-5.832,2.304-6.552,5.545c-0.145,0.576-0.217,1.296-0.217,1.944V426.324z"/>
	<path d="M339.284,390.32h10.944v51.125h-10.944V390.32z"/>
	<path d="M393.863,423.443c0,12.89-9.146,18.794-18.578,18.794c-10.297,0-18.218-6.769-18.218-18.146s7.489-18.649,18.794-18.649
		C386.661,405.442,393.863,412.858,393.863,423.443z M368.372,423.803c0,6.049,2.52,10.585,7.2,10.585
		c4.248,0,6.984-4.248,6.984-10.585c0-5.256-2.016-10.585-6.984-10.585C370.316,413.218,368.372,418.619,368.372,423.803z"/>
	<path d="M400.627,417.467c0-4.393-0.145-8.137-0.288-11.233h9.505l0.504,4.824h0.216c1.44-2.232,5.041-5.616,10.873-5.616
		c7.2,0,12.602,4.752,12.602,15.121v20.882h-10.945v-19.514c0-4.537-1.584-7.633-5.545-7.633c-3.023,0-4.824,2.088-5.544,4.104
		c-0.288,0.648-0.433,1.728-0.433,2.736v20.306h-10.944V417.467z"/>
	<path d="M453.764,421.067h0.145c0.792-1.44,1.656-2.88,2.521-4.248l7.128-10.585h13.178l-12.602,14.257l14.401,20.954H465.07
		l-8.497-14.473l-2.809,3.455v11.018H442.82V390.32h10.944V421.067z"/>
	<path d="M502.22,441.445l-0.648-3.528h-0.216c-2.304,2.808-5.904,4.32-10.081,4.32c-7.128,0-11.377-5.185-11.377-10.801
		c0-9.146,8.209-13.537,20.666-13.465v-0.504c0-1.872-1.008-4.537-6.408-4.537c-3.601,0-7.417,1.224-9.721,2.665l-2.017-7.057
		c2.448-1.368,7.272-3.096,13.682-3.096c11.736,0,15.48,6.913,15.48,15.193v12.241c0,3.384,0.145,6.624,0.505,8.568H502.22z
		 M500.924,424.812c-5.761-0.072-10.226,1.295-10.226,5.544c0,2.808,1.873,4.177,4.321,4.177c2.735,0,4.968-1.801,5.688-4.033
		c0.144-0.576,0.216-1.224,0.216-1.871V424.812z"/>
	<path fill="#00B3D8" d="M519.426,435.613c0-3.889,2.664-6.697,6.48-6.697s6.408,2.736,6.408,6.697c0,3.816-2.592,6.624-6.48,6.624
		C522.09,442.237,519.426,439.429,519.426,435.613z"/>
	<path d="M538.938,418.043c0-4.608-0.145-8.569-0.288-11.809h9.505l0.504,4.896h0.144c2.593-3.745,6.625-5.688,11.737-5.688
		c7.705,0,14.617,6.696,14.617,17.929c0,12.818-8.137,18.866-15.985,18.866c-4.248,0-7.561-1.728-9.145-4.032h-0.145v17.498h-10.944
		V418.043z M549.882,426.324c0,0.863,0.072,1.656,0.217,2.305c0.72,2.951,3.24,5.184,6.408,5.184c4.752,0,7.561-3.96,7.561-9.937
		c0-5.617-2.521-9.865-7.417-9.865c-3.096,0-5.832,2.304-6.552,5.545c-0.145,0.576-0.217,1.296-0.217,1.944V426.324z"/>
	<path d="M581.993,390.32h10.944v51.125h-10.944V390.32z"/>
</g>
</svg>
